<svg width="232" height="252" viewBox="0 0 232 252" fill="none" xmlns="http://www.w3.org/2000/svg">
<g clip-path="url(#clip0_1_6)">
<path d="M232 48.1483C223.464 52.248 214.291 55.009 204.663 56.2535C214.494 49.8844 222.043 39.7921 225.591 27.765C216.398 33.6635 206.209 37.9514 195.363 40.2627C186.692 30.2541 174.309 24 160.621 24C129.891 24 107.31 55.0194 114.25 87.2206C74.704 85.0767 39.6333 64.5783 16.153 33.423C3.683 56.5673 9.686 86.8441 30.8753 102.176C23.084 101.904 15.7373 99.5928 9.32833 95.7337C8.80633 119.589 24.6113 141.907 47.502 146.875C40.803 148.841 33.466 149.301 26.0033 147.753C32.0547 168.21 49.6287 183.092 70.47 183.511C50.46 200.484 25.2493 208.067 0 204.846C21.0637 219.456 46.0907 227.979 72.964 227.979C161.337 227.979 211.265 147.231 208.249 74.8066C217.548 67.538 225.62 58.4707 232 48.1483V48.1483Z" fill="url(#paint0_linear_1_6)" fill-opacity="0.95"/>
</g>
<defs>
<linearGradient id="paint0_linear_1_6" x1="116" y1="24" x2="116" y2="227.979" gradientUnits="userSpaceOnUse">
<stop stop-color="#E83030"/>
<stop offset="1" stop-color="#9730E8" stop-opacity="0.58"/>
</linearGradient>
<clipPath id="clip0_1_6">
<rect width="232" height="251.979" fill="white"/>
</clipPath>
</defs>
</svg>
